<?xml version="1.0" encoding="us-ascii" standalone="no"?><svg xmlns="http://www.w3.org/2000/svg" xmlns:xlink="http://www.w3.org/1999/xlink" contentStyleType="text/css" height="794px" preserveAspectRatio="none" style="width:359px;height:794px;background:#FFFFFF;" version="1.1" viewBox="0 0 359 794" width="359px" zoomAndPan="magnify"><defs/><g><!--cluster Casos de Uso--><g id="cluster_Casos de Uso"><rect fill="none" height="781" rx="2.5" ry="2.5" style="stroke:#181818;stroke-width:1.0;" width="201" x="152" y="7"/><text fill="#000000" font-family="sans-serif" font-size="14" font-weight="bold" lengthAdjust="spacing" textLength="107" x="199" y="21.9951">Casos de Uso</text></g><g id="elem_Iniciar Sesi&#243;n"><ellipse cx="252.4333" cy="190.9867" fill="#F1F1F1" rx="70.4333" ry="16.4867" style="stroke:#181818;stroke-width:0.5;"/><text fill="#000000" font-family="sans-serif" font-size="14" lengthAdjust="spacing" textLength="94" x="202.4333" y="194.7342">Iniciar Sesi&#243;n</text></g><g id="elem_Ver Pel&#237;culas"><ellipse cx="252.464" cy="259.1928" fill="#F1F1F1" rx="68.964" ry="16.1928" style="stroke:#181818;stroke-width:0.5;"/><text fill="#000000" font-family="sans-serif" font-size="14" lengthAdjust="spacing" textLength="90" x="204.464" y="262.9404">Ver Pel&#237;culas</text></g><g id="elem_Buscar Pel&#237;cula"><ellipse cx="252.6066" cy="327.8213" fill="#F1F1F1" rx="74.6066" ry="17.3213" style="stroke:#181818;stroke-width:0.5;"/><text fill="#000000" font-family="sans-serif" font-size="14" lengthAdjust="spacing" textLength="105" x="197.1066" y="331.5689">Buscar Pel&#237;cula</text></g><g id="elem_Ver Libros"><ellipse cx="252.5625" cy="57.0125" fill="#F1F1F1" rx="63.0625" ry="15.0125" style="stroke:#181818;stroke-width:0.5;"/><text fill="#000000" font-family="sans-serif" font-size="14" lengthAdjust="spacing" textLength="73" x="213.0625" y="60.7601">Ver Libros</text></g><g id="elem_Buscar Libro"><ellipse cx="252.74" cy="123.048" fill="#F1F1F1" rx="68.24" ry="16.048" style="stroke:#181818;stroke-width:0.5;"/><text fill="#000000" font-family="sans-serif" font-size="14" lengthAdjust="spacing" textLength="88" x="205.74" y="126.7956">Buscar Libro</text></g><g id="elem_Actualizar Pel&#237;cula"><ellipse cx="252.4263" cy="538.7853" fill="#F1F1F1" rx="84.4263" ry="19.2853" style="stroke:#181818;stroke-width:0.5;"/><text fill="#000000" font-family="sans-serif" font-size="14" lengthAdjust="spacing" textLength="129" x="187.805" y="541.6739">Actualizar Pel&#237;cula</text></g><g id="elem_Agregar Pel&#237;cula"><ellipse cx="252.5591" cy="612.1118" fill="#F1F1F1" rx="78.5591" ry="18.1118" style="stroke:#181818;stroke-width:0.5;"/><text fill="#000000" font-family="sans-serif" font-size="14" lengthAdjust="spacing" textLength="115" x="192.8328" y="615.6525">Agregar Pel&#237;cula</text></g><g id="elem_Eliminar Pel&#237;cula"><ellipse cx="252.4652" cy="683.193" fill="#F1F1F1" rx="78.9652" ry="18.193" style="stroke:#181818;stroke-width:0.5;"/><text fill="#000000" font-family="sans-serif" font-size="14" lengthAdjust="spacing" textLength="116" x="192.4" y="686.6886">Eliminar Pel&#237;cula</text></g><g id="elem_Actualizar Libro"><ellipse cx="252.3536" cy="753.8707" fill="#F1F1F1" rx="77.3536" ry="17.8707" style="stroke:#181818;stroke-width:0.5;"/><text fill="#000000" font-family="sans-serif" font-size="14" lengthAdjust="spacing" textLength="112" x="193.6333" y="757.5454">Actualizar Libro</text></g><g id="elem_Agregar Libro"><ellipse cx="252.4293" cy="397.7859" fill="#F1F1F1" rx="71.9293" ry="16.7859" style="stroke:#181818;stroke-width:0.5;"/><text fill="#000000" font-family="sans-serif" font-size="14" lengthAdjust="spacing" textLength="98" x="200.4293" y="401.5334">Agregar Libro</text></g><g id="elem_Eliminar Libro"><ellipse cx="252.3073" cy="466.8615" fill="#F1F1F1" rx="72.3073" ry="16.8615" style="stroke:#181818;stroke-width:0.5;"/><text fill="#000000" font-family="sans-serif" font-size="14" lengthAdjust="spacing" textLength="99" x="199.8073" y="470.609">Eliminar Libro</text></g><!--entity Usuario--><g id="elem_Usuario"><ellipse cx="57" cy="161.5" fill="#F1F1F1" rx="8" ry="8" style="stroke:#181818;stroke-width:0.5;"/><path d="M57,169.5 L57,196.5 M44,177.5 L70,177.5 M57,196.5 L44,211.5 M57,196.5 L70,211.5 " fill="none" style="stroke:#181818;stroke-width:0.5;"/><text fill="#000000" font-family="sans-serif" font-size="14" lengthAdjust="spacing" textLength="51" x="31.5" y="225.9951">Usuario</text></g><!--entity Administrador--><g id="elem_Administrador"><ellipse cx="57" cy="368.5" fill="#F1F1F1" rx="8" ry="8" style="stroke:#181818;stroke-width:0.5;"/><path d="M57,376.5 L57,403.5 M44,384.5 L70,384.5 M57,403.5 L44,418.5 M57,403.5 L70,418.5 " fill="none" style="stroke:#181818;stroke-width:0.5;"/><text fill="#000000" font-family="sans-serif" font-size="14" lengthAdjust="spacing" textLength="102" x="6" y="432.9951">Administrador</text></g><!--link Usuario to Iniciar Sesi?n--><g id="link_Usuario_Iniciar Sesi&#243;n"><path d="M82.5069,191 C107.422,191 141.188,191 175.888,191 " fill="none" id="Usuario-to-Iniciar Sesi&#243;n" style="stroke:#181818;stroke-width:1.0;"/><polygon fill="#181818" points="181.888,191,172.888,187,176.888,191,172.888,195,181.888,191" style="stroke:#181818;stroke-width:1.0;"/></g><!--link Usuario to Ver Pel?culas--><g id="link_Usuario_Ver Pel&#237;culas"><path d="M82.6643,201.284 C99.7632,208.281 123.123,217.582 144,225 C165.396,232.602 183.7399,238.5297 203.6759,244.6707 " fill="none" id="Usuario-to-Ver Pel&#237;culas" style="stroke:#181818;stroke-width:1.0;"/><polygon fill="#181818" points="209.41,246.437,201.9864,239.9648,204.6316,244.9651,199.6313,247.6103,209.41,246.437" style="stroke:#181818;stroke-width:1.0;"/></g><!--link Usuario to Buscar Pel?cula--><g id="link_Usuario_Buscar Pel&#237;cula"><path d="M82.6818,229.121 C98.0757,250.244 119.576,275.494 144,292 C159.981,302.8 173.7444,308.8454 191.7264,314.3684 " fill="none" id="Usuario-to-Buscar Pel&#237;cula" style="stroke:#181818;stroke-width:1.0;"/><polygon fill="#181818" points="197.462,316.13,190.0331,309.6639,192.6824,314.662,187.6842,317.3113,197.462,316.13" style="stroke:#181818;stroke-width:1.0;"/></g><!--link Usuario to Ver Libros--><g id="link_Usuario_Ver Libros"><path d="M81.8627,152.934 C97.1939,131.342 118.907,105.434 144,89 C161.023,77.852 176.2471,71.9557 195.1861,67.1257 " fill="none" id="Usuario-to-Ver Libros" style="stroke:#181818;stroke-width:1.0;"/><polygon fill="#181818" points="201,65.643,191.2907,63.9911,196.1551,66.8786,193.2676,71.743,201,65.643" style="stroke:#181818;stroke-width:1.0;"/></g><!--link Usuario to Buscar Libro--><g id="link_Usuario_Buscar Libro"><path d="M82.6643,180.716 C99.7632,173.719 123.123,164.418 144,157 C165.488,149.365 183.9467,143.4039 203.9337,137.2489 " fill="none" id="Usuario-to-Buscar Libro" style="stroke:#181818;stroke-width:1.0;"/><polygon fill="#181818" points="209.668,135.483,199.8894,134.309,204.8895,136.9546,202.2439,141.9546,209.668,135.483" style="stroke:#181818;stroke-width:1.0;"/></g><!--link Administrador to Iniciar Sesi?n--><g id="link_Administrador_Iniciar Sesi&#243;n"><path d="M67.4649,359.808 C79.1005,320.595 102.5913,260.441 144,225 C157.979,213.036 170.4211,206.9372 187.8661,201.9042 " fill="none" id="Administrador-to-Iniciar Sesi&#243;n" style="stroke:#181818;stroke-width:1.0;"/><polygon fill="#181818" points="193.631,200.241,183.8749,198.8926,188.8269,201.627,186.0925,206.5791,193.631,200.241" style="stroke:#181818;stroke-width:1.0;"/></g><!--link Administrador to Ver Pel?culas--><g id="link_Administrador_Ver Pel&#237;culas"><path d="M81.0347,359.984 C96.3565,337.609 118.347,310.379 144,293 C160.368,281.912 174.7762,275.9013 193.2192,270.7253 " fill="none" id="Administrador-to-Ver Pel&#237;culas" style="stroke:#181818;stroke-width:1.0;"/><polygon fill="#181818" points="198.996,269.104,189.2499,267.6847,194.182,270.455,191.4116,275.3871,198.996,269.104" style="stroke:#181818;stroke-width:1.0;"/></g><!--link Administrador to Buscar Pel?cula--><g id="link_Administrador_Buscar Pel&#237;cula"><path d="M108.242,376.848 C119.918,372.129 132.343,367.263 144,363 C164.369,355.55 181.465,349.8319 200.818,343.6679 " fill="none" id="Administrador-to-Buscar Pel&#237;cula" style="stroke:#181818;stroke-width:1.0;"/><polygon fill="#181818" points="206.535,341.847,196.7455,340.767,201.7708,343.3644,199.1734,348.3897,206.535,341.847" style="stroke:#181818;stroke-width:1.0;"/></g><!--link Administrador to Ver Libros--><g id="link_Administrador_Ver Libros"><path d="M71.6252,359.881 C82.2855,329.317 97.0819,285.206 108,246 C127.205,177.036 95.0226,141.213 144,89 C156.989,75.153 169.855,68.6628 188.018,64.1368 " fill="none" id="Administrador-to-Ver Libros" style="stroke:#181818;stroke-width:1.0;"/><polygon fill="#181818" points="193.84,62.686,184.1399,60.9808,188.9884,63.895,186.0742,68.7435,193.84,62.686" style="stroke:#181818;stroke-width:1.0;"/></g><!--link Administrador to Buscar Libro--><g id="link_Administrador_Buscar Libro"><path d="M70.5998,359.925 C92.5962,293.869 136.395,164.333 144,157 C157.457,144.025 170.0556,137.6147 187.8086,132.6507 " fill="none" id="Administrador-to-Buscar Libro" style="stroke:#181818;stroke-width:1.0;"/><polygon fill="#181818" points="193.587,131.035,183.8423,129.6063,188.7717,132.3814,185.9966,137.3108,193.587,131.035" style="stroke:#181818;stroke-width:1.0;"/></g><!--link Administrador to Actualizar Pel?cula--><g id="link_Administrador_Actualizar Pel&#237;cula"><path d="M82.2775,436.232 C97.68,457.828 119.325,483.848 144,501 C158.872,511.338 171.1646,517.2107 188.1236,522.9697 " fill="none" id="Administrador-to-Actualizar Pel&#237;cula" style="stroke:#181818;stroke-width:1.0;"/><polygon fill="#181818" points="193.805,524.899,186.5692,518.2175,189.0705,523.2913,183.9968,525.7926,193.805,524.899" style="stroke:#181818;stroke-width:1.0;"/></g><!--link Administrador to Agregar Pel?cula--><g id="link_Administrador_Agregar Pel&#237;cula"><path d="M66.9702,436.032 C78.3426,476.214 101.7559,538.804 144,576 C157.147,587.576 168.436,593.6112 185.019,598.9632 " fill="none" id="Administrador-to-Agregar Pel&#237;cula" style="stroke:#181818;stroke-width:1.0;"/><polygon fill="#181818" points="190.729,600.806,183.3926,594.2351,185.9707,599.2703,180.9355,601.8484,190.729,600.806" style="stroke:#181818;stroke-width:1.0;"/></g><!--link Administrador to Eliminar Pel?cula--><g id="link_Administrador_Eliminar Pel&#237;cula"><path d="M60.7135,436.154 C66.6136,490.561 85.2619,590.227 144,648 C155.894,659.699 166.038,665.6227 181.902,670.8087 " fill="none" id="Administrador-to-Eliminar Pel&#237;cula" style="stroke:#181818;stroke-width:1.0;"/><polygon fill="#181818" points="187.605,672.673,180.2934,666.0745,182.8525,671.1194,177.8076,673.6785,187.605,672.673" style="stroke:#181818;stroke-width:1.0;"/></g><!--link Administrador to Actualizar Libro--><g id="link_Administrador_Actualizar Libro"><path d="M57.1698,436.195 C57.8488,502.621 68.965,639.879 144,719 C155.48,731.1053 165.4851,737.1659 181.3481,742.3523 " fill="none" id="Administrador-to-Actualizar Libro" style="stroke:#181818;stroke-width:1.0;"/><polygon fill="#181818" points="187.051,744.2169,179.7397,737.6181,182.2986,742.6631,177.2536,745.222,187.051,744.2169" style="stroke:#181818;stroke-width:1.0;"/></g><!--link Administrador to Agregar Libro--><g id="link_Administrador_Agregar Libro"><path d="M108.083,398 C130.143,398 150.459,398 174.49,398 " fill="none" id="Administrador-to-Agregar Libro" style="stroke:#181818;stroke-width:1.0;"/><polygon fill="#181818" points="180.49,398,171.49,394,175.49,398,171.49,402,180.49,398" style="stroke:#181818;stroke-width:1.0;"/></g><!--link Administrador to Eliminar Libro--><g id="link_Administrador_Eliminar Libro"><path d="M108.279,418.48 C119.954,423.067 132.369,427.812 144,432 C164.867,439.514 182.5417,445.3908 202.1627,451.6488 " fill="none" id="Administrador-to-Eliminar Libro" style="stroke:#181818;stroke-width:1.0;"/><polygon fill="#181818" points="207.879,453.472,200.52,446.9264,203.1154,451.9527,198.0891,454.5481,207.879,453.472" style="stroke:#181818;stroke-width:1.0;"/></g><!--SRC=[ZO-z2i8m4CVtFCNXf4DVGQZY83W8elkPn7WG4xYaY-8ZEVa8VJ5hBLenhSqGIExt_pYh3n6Y1oPpZA28jOpadH0eesVOXWAPVFFArOaSXSYeF0lnPD4Pgs4qn-03A5q9_0Wk0ghJQ27BfZ1UEfA431iTgBoxoI-nqmnhRSkRB2o6130hWiGMq-6neZtx7dqzVuthwskfdh89BbKvWQMBT_YrwtTxjPP8GBcC1Lew3mhD3MipY5nOglw6cNuQ_AdQfFTJx-G6kpu0]--></g></svg>
