<?xml version="1.0" encoding="us-ascii" standalone="no"?><svg xmlns="http://www.w3.org/2000/svg" xmlns:xlink="http://www.w3.org/1999/xlink" contentStyleType="text/css" height="415px" preserveAspectRatio="none" style="width:623px;height:415px;background:#FFFFFF;" version="1.1" viewBox="0 0 623 415" width="623px" zoomAndPan="magnify"><defs/><g><!--class User--><g id="elem_User"><rect codeLine="1" fill="#F1F1F1" height="113.1875" id="User" rx="2.5" ry="2.5" style="stroke:#181818;stroke-width:0.5;" width="97" x="269" y="31.5"/><ellipse cx="299.3" cy="47.5" fill="#ADD1B2" rx="11" ry="11" style="stroke:#181818;stroke-width:1.0;"/><path d="M301.6438,43.1719 C300.7063,42.7344 300.1125,42.5938 299.2375,42.5938 C296.6125,42.5938 294.6125,44.6719 294.6125,47.3906 L294.6125,48.5156 C294.6125,51.0938 296.7219,52.9844 299.6125,52.9844 C300.8313,52.9844 301.9875,52.6875 302.7375,52.1406 C303.3156,51.7344 303.6438,51.2813 303.6438,50.8906 C303.6438,50.4375 303.2531,50.0469 302.7844,50.0469 C302.5656,50.0469 302.3625,50.125 302.175,50.3125 C301.7219,50.7969 301.7219,50.7969 301.5344,50.8906 C301.1125,51.1563 300.425,51.2813 299.6594,51.2813 C297.6125,51.2813 296.3156,50.1875 296.3156,48.4844 L296.3156,47.3906 C296.3156,45.6094 297.5656,44.2969 299.3,44.2969 C299.8781,44.2969 300.4875,44.4531 300.9563,44.7031 C301.4406,44.9844 301.6125,45.2031 301.7063,45.6094 C301.7688,46.0156 301.8,46.1406 301.9406,46.2656 C302.0813,46.4063 302.3156,46.5156 302.5344,46.5156 C302.8,46.5156 303.0656,46.375 303.2375,46.1563 C303.3469,46 303.3781,45.8125 303.3781,45.3906 L303.3781,43.9688 C303.3781,43.5313 303.3625,43.4063 303.2688,43.25 C303.1125,42.9844 302.8313,42.8438 302.5344,42.8438 C302.2375,42.8438 302.0344,42.9375 301.8156,43.25 L301.6438,43.1719 Z " fill="#000000"/><text fill="#000000" font-family="sans-serif" font-size="14" lengthAdjust="spacing" textLength="31" x="316.7" y="52.3467">User</text><line style="stroke:#181818;stroke-width:0.5;" x1="270" x2="365" y1="63.5" y2="63.5"/><ellipse cx="280" cy="77.1484" fill="none" rx="3" ry="3" style="stroke:#038048;stroke-width:1.0;"/><text fill="#000000" font-family="sans-serif" font-size="14" lengthAdjust="spacing" textLength="13" x="289" y="80.4951">Id</text><ellipse cx="280" cy="93.4453" fill="none" rx="3" ry="3" style="stroke:#038048;stroke-width:1.0;"/><text fill="#000000" font-family="sans-serif" font-size="14" lengthAdjust="spacing" textLength="71" x="289" y="96.792">Username</text><ellipse cx="280" cy="109.7422" fill="none" rx="3" ry="3" style="stroke:#038048;stroke-width:1.0;"/><text fill="#000000" font-family="sans-serif" font-size="14" lengthAdjust="spacing" textLength="66" x="289" y="113.0889">Password</text><ellipse cx="280" cy="126.0391" fill="none" rx="3" ry="3" style="stroke:#038048;stroke-width:1.0;"/><text fill="#000000" font-family="sans-serif" font-size="14" lengthAdjust="spacing" textLength="32" x="289" y="129.3857">Role</text><line style="stroke:#181818;stroke-width:0.5;" x1="270" x2="365" y1="136.6875" y2="136.6875"/></g><!--class Book--><g id="elem_Book"><rect codeLine="8" fill="#F1F1F1" height="113.1875" id="Book" rx="2.5" ry="2.5" style="stroke:#181818;stroke-width:0.5;" width="75" x="471" y="270.5"/><ellipse cx="488.7" cy="286.5" fill="#ADD1B2" rx="11" ry="11" style="stroke:#181818;stroke-width:1.0;"/><path d="M491.0438,282.1719 C490.1063,281.7344 489.5125,281.5938 488.6375,281.5938 C486.0125,281.5938 484.0125,283.6719 484.0125,286.3906 L484.0125,287.5156 C484.0125,290.0938 486.1219,291.9844 489.0125,291.9844 C490.2313,291.9844 491.3875,291.6875 492.1375,291.1406 C492.7156,290.7344 493.0438,290.2813 493.0438,289.8906 C493.0438,289.4375 492.6531,289.0469 492.1844,289.0469 C491.9656,289.0469 491.7625,289.125 491.575,289.3125 C491.1219,289.7969 491.1219,289.7969 490.9344,289.8906 C490.5125,290.1563 489.825,290.2813 489.0594,290.2813 C487.0125,290.2813 485.7156,289.1875 485.7156,287.4844 L485.7156,286.3906 C485.7156,284.6094 486.9656,283.2969 488.7,283.2969 C489.2781,283.2969 489.8875,283.4531 490.3563,283.7031 C490.8406,283.9844 491.0125,284.2031 491.1063,284.6094 C491.1688,285.0156 491.2,285.1406 491.3406,285.2656 C491.4813,285.4063 491.7156,285.5156 491.9344,285.5156 C492.2,285.5156 492.4656,285.375 492.6375,285.1563 C492.7469,285 492.7781,284.8125 492.7781,284.3906 L492.7781,282.9688 C492.7781,282.5313 492.7625,282.4063 492.6688,282.25 C492.5125,281.9844 492.2313,281.8438 491.9344,281.8438 C491.6375,281.8438 491.4344,281.9375 491.2156,282.25 L491.0438,282.1719 Z " fill="#000000"/><text fill="#000000" font-family="sans-serif" font-size="14" lengthAdjust="spacing" textLength="37" x="503.3" y="291.3467">Book</text><line style="stroke:#181818;stroke-width:0.5;" x1="472" x2="545" y1="302.5" y2="302.5"/><ellipse cx="482" cy="316.1484" fill="none" rx="3" ry="3" style="stroke:#038048;stroke-width:1.0;"/><text fill="#000000" font-family="sans-serif" font-size="14" lengthAdjust="spacing" textLength="13" x="491" y="319.4951">Id</text><ellipse cx="482" cy="332.4453" fill="none" rx="3" ry="3" style="stroke:#038048;stroke-width:1.0;"/><text fill="#000000" font-family="sans-serif" font-size="14" lengthAdjust="spacing" textLength="33" x="491" y="335.792">Title</text><ellipse cx="482" cy="348.7422" fill="none" rx="3" ry="3" style="stroke:#038048;stroke-width:1.0;"/><text fill="#000000" font-family="sans-serif" font-size="14" lengthAdjust="spacing" textLength="49" x="491" y="352.0889">Author</text><ellipse cx="482" cy="365.0391" fill="none" rx="3" ry="3" style="stroke:#038048;stroke-width:1.0;"/><text fill="#000000" font-family="sans-serif" font-size="14" lengthAdjust="spacing" textLength="32" x="491" y="368.3857">Year</text><line style="stroke:#181818;stroke-width:0.5;" x1="472" x2="545" y1="375.6875" y2="375.6875"/></g><!--class Movie--><g id="elem_Movie"><rect codeLine="15" fill="#F1F1F1" height="162.0781" id="Movie" rx="2.5" ry="2.5" style="stroke:#181818;stroke-width:0.5;" width="94" x="73.5" y="246"/><ellipse cx="97.5" cy="262" fill="#ADD1B2" rx="11" ry="11" style="stroke:#181818;stroke-width:1.0;"/><path d="M99.8438,257.6719 C98.9063,257.2344 98.3125,257.0938 97.4375,257.0938 C94.8125,257.0938 92.8125,259.1719 92.8125,261.8906 L92.8125,263.0156 C92.8125,265.5938 94.9219,267.4844 97.8125,267.4844 C99.0313,267.4844 100.1875,267.1875 100.9375,266.6406 C101.5156,266.2344 101.8438,265.7813 101.8438,265.3906 C101.8438,264.9375 101.4531,264.5469 100.9844,264.5469 C100.7656,264.5469 100.5625,264.625 100.375,264.8125 C99.9219,265.2969 99.9219,265.2969 99.7344,265.3906 C99.3125,265.6563 98.625,265.7813 97.8594,265.7813 C95.8125,265.7813 94.5156,264.6875 94.5156,262.9844 L94.5156,261.8906 C94.5156,260.1094 95.7656,258.7969 97.5,258.7969 C98.0781,258.7969 98.6875,258.9531 99.1563,259.2031 C99.6406,259.4844 99.8125,259.7031 99.9063,260.1094 C99.9688,260.5156 100,260.6406 100.1406,260.7656 C100.2813,260.9063 100.5156,261.0156 100.7344,261.0156 C101,261.0156 101.2656,260.875 101.4375,260.6563 C101.5469,260.5 101.5781,260.3125 101.5781,259.8906 L101.5781,258.4688 C101.5781,258.0313 101.5625,257.9063 101.4688,257.75 C101.3125,257.4844 101.0313,257.3438 100.7344,257.3438 C100.4375,257.3438 100.2344,257.4375 100.0156,257.75 L99.8438,257.6719 Z " fill="#000000"/><text fill="#000000" font-family="sans-serif" font-size="14" lengthAdjust="spacing" textLength="42" x="113.5" y="266.8467">Movie</text><line style="stroke:#181818;stroke-width:0.5;" x1="74.5" x2="166.5" y1="278" y2="278"/><ellipse cx="84.5" cy="291.6484" fill="none" rx="3" ry="3" style="stroke:#038048;stroke-width:1.0;"/><text fill="#000000" font-family="sans-serif" font-size="14" lengthAdjust="spacing" textLength="13" x="93.5" y="294.9951">Id</text><ellipse cx="84.5" cy="307.9453" fill="none" rx="3" ry="3" style="stroke:#038048;stroke-width:1.0;"/><text fill="#000000" font-family="sans-serif" font-size="14" lengthAdjust="spacing" textLength="33" x="93.5" y="311.292">Title</text><ellipse cx="84.5" cy="324.2422" fill="none" rx="3" ry="3" style="stroke:#038048;stroke-width:1.0;"/><text fill="#000000" font-family="sans-serif" font-size="14" lengthAdjust="spacing" textLength="32" x="93.5" y="327.5889">Year</text><ellipse cx="84.5" cy="340.5391" fill="none" rx="3" ry="3" style="stroke:#038048;stroke-width:1.0;"/><text fill="#000000" font-family="sans-serif" font-size="14" lengthAdjust="spacing" textLength="60" x="93.5" y="343.8857">Director</text><ellipse cx="84.5" cy="356.8359" fill="none" rx="3" ry="3" style="stroke:#038048;stroke-width:1.0;"/><text fill="#000000" font-family="sans-serif" font-size="14" lengthAdjust="spacing" textLength="44" x="93.5" y="360.1826">Genre</text><ellipse cx="84.5" cy="373.1328" fill="none" rx="3" ry="3" style="stroke:#038048;stroke-width:1.0;"/><text fill="#000000" font-family="sans-serif" font-size="14" lengthAdjust="spacing" textLength="68" x="93.5" y="376.4795">Language</text><ellipse cx="84.5" cy="389.4297" fill="none" rx="3" ry="3" style="stroke:#038048;stroke-width:1.0;"/><text fill="#000000" font-family="sans-serif" font-size="14" lengthAdjust="spacing" textLength="63" x="93.5" y="392.7764">Synopsis</text><line style="stroke:#181818;stroke-width:0.5;" x1="74.5" x2="166.5" y1="400.0781" y2="400.0781"/></g><!--class MongoConnection--><g id="elem_MongoConnection"><rect codeLine="25" fill="#F1F1F1" height="113.1875" id="MongoConnection" rx="2.5" ry="2.5" style="stroke:#181818;stroke-width:0.5;" width="163" x="236" y="270.5"/><ellipse cx="251" cy="286.5" fill="#ADD1B2" rx="11" ry="11" style="stroke:#181818;stroke-width:1.0;"/><path d="M253.3438,282.1719 C252.4063,281.7344 251.8125,281.5938 250.9375,281.5938 C248.3125,281.5938 246.3125,283.6719 246.3125,286.3906 L246.3125,287.5156 C246.3125,290.0938 248.4219,291.9844 251.3125,291.9844 C252.5313,291.9844 253.6875,291.6875 254.4375,291.1406 C255.0156,290.7344 255.3438,290.2813 255.3438,289.8906 C255.3438,289.4375 254.9531,289.0469 254.4844,289.0469 C254.2656,289.0469 254.0625,289.125 253.875,289.3125 C253.4219,289.7969 253.4219,289.7969 253.2344,289.8906 C252.8125,290.1563 252.125,290.2813 251.3594,290.2813 C249.3125,290.2813 248.0156,289.1875 248.0156,287.4844 L248.0156,286.3906 C248.0156,284.6094 249.2656,283.2969 251,283.2969 C251.5781,283.2969 252.1875,283.4531 252.6563,283.7031 C253.1406,283.9844 253.3125,284.2031 253.4063,284.6094 C253.4688,285.0156 253.5,285.1406 253.6406,285.2656 C253.7813,285.4063 254.0156,285.5156 254.2344,285.5156 C254.5,285.5156 254.7656,285.375 254.9375,285.1563 C255.0469,285 255.0781,284.8125 255.0781,284.3906 L255.0781,282.9688 C255.0781,282.5313 255.0625,282.4063 254.9688,282.25 C254.8125,281.9844 254.5313,281.8438 254.2344,281.8438 C253.9375,281.8438 253.7344,281.9375 253.5156,282.25 L253.3438,282.1719 Z " fill="#000000"/><text fill="#000000" font-family="sans-serif" font-size="14" lengthAdjust="spacing" textLength="131" x="265" y="291.3467">MongoConnection</text><line style="stroke:#181818;stroke-width:0.5;" x1="237" x2="398" y1="302.5" y2="302.5"/><rect fill="none" height="6" style="stroke:#C82930;stroke-width:1.0;" width="6" x="244" y="313.1484"/><text fill="#000000" font-family="sans-serif" font-size="14" lengthAdjust="spacing" textLength="91" x="256" y="319.4951">MongoClient</text><rect fill="none" height="6" style="stroke:#C82930;stroke-width:1.0;" width="6" x="244" y="329.4453"/><text fill="#000000" font-family="sans-serif" font-size="14" lengthAdjust="spacing" textLength="120" x="256" y="335.792">IMongoDatabase</text><ellipse cx="247" cy="348.7422" fill="none" rx="3" ry="3" style="stroke:#038048;stroke-width:1.0;"/><text fill="#000000" font-family="sans-serif" font-size="14" lengthAdjust="spacing" textLength="49" x="256" y="352.0889">Movies</text><ellipse cx="247" cy="365.0391" fill="none" rx="3" ry="3" style="stroke:#038048;stroke-width:1.0;"/><text fill="#000000" font-family="sans-serif" font-size="14" lengthAdjust="spacing" textLength="38" x="256" y="368.3857">Users</text><line style="stroke:#181818;stroke-width:0.5;" x1="237" x2="398" y1="375.6875" y2="375.6875"/></g><!--class MoviesController--><g id="elem_MoviesController"><rect codeLine="32" fill="#F1F1F1" height="162.0781" id="MoviesController" rx="2.5" ry="2.5" style="stroke:#181818;stroke-width:0.5;" width="227" x="7" y="7"/><ellipse cx="55.25" cy="23" fill="#ADD1B2" rx="11" ry="11" style="stroke:#181818;stroke-width:1.0;"/><path d="M57.5938,18.6719 C56.6563,18.2344 56.0625,18.0938 55.1875,18.0938 C52.5625,18.0938 50.5625,20.1719 50.5625,22.8906 L50.5625,24.0156 C50.5625,26.5938 52.6719,28.4844 55.5625,28.4844 C56.7813,28.4844 57.9375,28.1875 58.6875,27.6406 C59.2656,27.2344 59.5938,26.7813 59.5938,26.3906 C59.5938,25.9375 59.2031,25.5469 58.7344,25.5469 C58.5156,25.5469 58.3125,25.625 58.125,25.8125 C57.6719,26.2969 57.6719,26.2969 57.4844,26.3906 C57.0625,26.6563 56.375,26.7813 55.6094,26.7813 C53.5625,26.7813 52.2656,25.6875 52.2656,23.9844 L52.2656,22.8906 C52.2656,21.1094 53.5156,19.7969 55.25,19.7969 C55.8281,19.7969 56.4375,19.9531 56.9063,20.2031 C57.3906,20.4844 57.5625,20.7031 57.6563,21.1094 C57.7188,21.5156 57.75,21.6406 57.8906,21.7656 C58.0313,21.9063 58.2656,22.0156 58.4844,22.0156 C58.75,22.0156 59.0156,21.875 59.1875,21.6563 C59.2969,21.5 59.3281,21.3125 59.3281,20.8906 L59.3281,19.4688 C59.3281,19.0313 59.3125,18.9063 59.2188,18.75 C59.0625,18.4844 58.7813,18.3438 58.4844,18.3438 C58.1875,18.3438 57.9844,18.4375 57.7656,18.75 L57.5938,18.6719 Z " fill="#000000"/><text fill="#000000" font-family="sans-serif" font-size="14" lengthAdjust="spacing" textLength="122" x="75.75" y="27.8467">MoviesController</text><line style="stroke:#181818;stroke-width:0.5;" x1="8" x2="233" y1="39" y2="39"/><rect fill="none" height="6" style="stroke:#C82930;stroke-width:1.0;" width="6" x="15" y="49.6484"/><text fill="#000000" font-family="sans-serif" font-size="14" lengthAdjust="spacing" textLength="131" x="27" y="55.9951">MongoConnection</text><line style="stroke:#181818;stroke-width:0.5;" x1="8" x2="233" y1="63.2969" y2="63.2969"/><ellipse cx="18" cy="76.9453" fill="#84BE84" rx="3" ry="3" style="stroke:#038048;stroke-width:1.0;"/><text fill="#000000" font-family="sans-serif" font-size="14" lengthAdjust="spacing" textLength="37" x="27" y="80.292">Get()</text><ellipse cx="18" cy="93.2422" fill="#84BE84" rx="3" ry="3" style="stroke:#038048;stroke-width:1.0;"/><text fill="#000000" font-family="sans-serif" font-size="14" lengthAdjust="spacing" textLength="170" x="27" y="96.5889">GetByTitle(title: string)</text><ellipse cx="18" cy="109.5391" fill="#84BE84" rx="3" ry="3" style="stroke:#038048;stroke-width:1.0;"/><text fill="#000000" font-family="sans-serif" font-size="14" lengthAdjust="spacing" textLength="101" x="27" y="112.8857">Get(id: string)</text><ellipse cx="18" cy="125.8359" fill="#84BE84" rx="3" ry="3" style="stroke:#038048;stroke-width:1.0;"/><text fill="#000000" font-family="sans-serif" font-size="14" lengthAdjust="spacing" textLength="137" x="27" y="129.1826">Post(movie: Movie)</text><ellipse cx="18" cy="142.1328" fill="#84BE84" rx="3" ry="3" style="stroke:#038048;stroke-width:1.0;"/><text fill="#000000" font-family="sans-serif" font-size="14" lengthAdjust="spacing" textLength="201" x="27" y="145.4795">Put(id: string, movie: Movie)</text><ellipse cx="18" cy="158.4297" fill="#84BE84" rx="3" ry="3" style="stroke:#038048;stroke-width:1.0;"/><text fill="#000000" font-family="sans-serif" font-size="14" lengthAdjust="spacing" textLength="123" x="27" y="161.7764">Delete(id: string)</text></g><!--class BooksController--><g id="elem_BooksController"><rect codeLine="42" fill="#F1F1F1" height="145.7813" id="BooksController" rx="2.5" ry="2.5" style="stroke:#181818;stroke-width:0.5;" width="215" x="401" y="15"/><ellipse cx="445.75" cy="31" fill="#ADD1B2" rx="11" ry="11" style="stroke:#181818;stroke-width:1.0;"/><path d="M448.0938,26.6719 C447.1563,26.2344 446.5625,26.0938 445.6875,26.0938 C443.0625,26.0938 441.0625,28.1719 441.0625,30.8906 L441.0625,32.0156 C441.0625,34.5938 443.1719,36.4844 446.0625,36.4844 C447.2813,36.4844 448.4375,36.1875 449.1875,35.6406 C449.7656,35.2344 450.0938,34.7813 450.0938,34.3906 C450.0938,33.9375 449.7031,33.5469 449.2344,33.5469 C449.0156,33.5469 448.8125,33.625 448.625,33.8125 C448.1719,34.2969 448.1719,34.2969 447.9844,34.3906 C447.5625,34.6563 446.875,34.7813 446.1094,34.7813 C444.0625,34.7813 442.7656,33.6875 442.7656,31.9844 L442.7656,30.8906 C442.7656,29.1094 444.0156,27.7969 445.75,27.7969 C446.3281,27.7969 446.9375,27.9531 447.4063,28.2031 C447.8906,28.4844 448.0625,28.7031 448.1563,29.1094 C448.2188,29.5156 448.25,29.6406 448.3906,29.7656 C448.5313,29.9063 448.7656,30.0156 448.9844,30.0156 C449.25,30.0156 449.5156,29.875 449.6875,29.6563 C449.7969,29.5 449.8281,29.3125 449.8281,28.8906 L449.8281,27.4688 C449.8281,27.0313 449.8125,26.9063 449.7188,26.75 C449.5625,26.4844 449.2813,26.3438 448.9844,26.3438 C448.6875,26.3438 448.4844,26.4375 448.2656,26.75 L448.0938,26.6719 Z " fill="#000000"/><text fill="#000000" font-family="sans-serif" font-size="14" lengthAdjust="spacing" textLength="117" x="466.25" y="35.8467">BooksController</text><line style="stroke:#181818;stroke-width:0.5;" x1="402" x2="615" y1="47" y2="47"/><rect fill="none" height="6" style="stroke:#C82930;stroke-width:1.0;" width="6" x="409" y="57.6484"/><text fill="#000000" font-family="sans-serif" font-size="14" lengthAdjust="spacing" textLength="131" x="421" y="63.9951">MongoConnection</text><line style="stroke:#181818;stroke-width:0.5;" x1="402" x2="615" y1="71.2969" y2="71.2969"/><ellipse cx="412" cy="84.9453" fill="#84BE84" rx="3" ry="3" style="stroke:#038048;stroke-width:1.0;"/><text fill="#000000" font-family="sans-serif" font-size="14" lengthAdjust="spacing" textLength="37" x="421" y="88.292">Get()</text><ellipse cx="412" cy="101.2422" fill="#84BE84" rx="3" ry="3" style="stroke:#038048;stroke-width:1.0;"/><text fill="#000000" font-family="sans-serif" font-size="14" lengthAdjust="spacing" textLength="101" x="421" y="104.5889">Get(id: string)</text><ellipse cx="412" cy="117.5391" fill="#84BE84" rx="3" ry="3" style="stroke:#038048;stroke-width:1.0;"/><text fill="#000000" font-family="sans-serif" font-size="14" lengthAdjust="spacing" textLength="125" x="421" y="120.8857">Post(book: Book)</text><ellipse cx="412" cy="133.8359" fill="#84BE84" rx="3" ry="3" style="stroke:#038048;stroke-width:1.0;"/><text fill="#000000" font-family="sans-serif" font-size="14" lengthAdjust="spacing" textLength="189" x="421" y="137.1826">Put(id: string, book: Book)</text><ellipse cx="412" cy="150.1328" fill="#84BE84" rx="3" ry="3" style="stroke:#038048;stroke-width:1.0;"/><text fill="#000000" font-family="sans-serif" font-size="14" lengthAdjust="spacing" textLength="123" x="421" y="153.4795">Delete(id: string)</text></g><!--link User to MongoConnection--><g id="link_User_MongoConnection"><path codeLine="51" d="M317.5,144.566 C317.5,182.464 317.5,232.461 317.5,270.372 " fill="none" id="User-MongoConnection" style="stroke:#181818;stroke-width:1.0;"/><text fill="#000000" font-family="sans-serif" font-size="13" lengthAdjust="spacing" textLength="61" x="318.5" y="212.0669">access to</text></g><!--link MoviesController to MongoConnection--><g id="link_MoviesController_MongoConnection"><path codeLine="52" d="M187.195,169.237 C214.766,202.407 246.061,240.056 271.071,270.144 " fill="none" id="MoviesController-MongoConnection" style="stroke:#181818;stroke-width:1.0;"/><text fill="#000000" font-family="sans-serif" font-size="13" lengthAdjust="spacing" textLength="30" x="226.5" y="212.0669">uses</text></g><!--link BooksController to MongoConnection--><g id="link_BooksController_MongoConnection"><path codeLine="53" d="M450.416,161.073 C422.1,196.209 388.571,237.813 362.273,270.445 " fill="none" id="BooksController-MongoConnection" style="stroke:#181818;stroke-width:1.0;"/><text fill="#000000" font-family="sans-serif" font-size="13" lengthAdjust="spacing" textLength="30" x="420.5" y="212.0669">uses</text></g><!--link MoviesController to Movie--><g id="link_MoviesController_Movie"><path codeLine="54" d="M120.5,169.237 C120.5,193.946 120.5,221.142 120.5,245.845 " fill="none" id="MoviesController-Movie" style="stroke:#181818;stroke-width:1.0;"/><text fill="#000000" font-family="sans-serif" font-size="13" lengthAdjust="spacing" textLength="30" x="121.5" y="212.0669">uses</text></g><!--link BooksController to Book--><g id="link_BooksController_Book"><path codeLine="55" d="M508.5,161.073 C508.5,196.209 508.5,237.813 508.5,270.445 " fill="none" id="BooksController-Book" style="stroke:#181818;stroke-width:1.0;"/><text fill="#000000" font-family="sans-serif" font-size="13" lengthAdjust="spacing" textLength="30" x="509.5" y="212.0669">uses</text></g><!--SRC=[dL9DJyCm3BttL-HO1Fq3lQrKGfEOD34uSCmogqHaCOfTq8JuxwHPqdNzu40FaJ-Udv_jAYE9n0k14z-PyD-jM1-YqKMjF49qjnxvXIvbdz10zfDbAZ1KYEzJXcVD9fMlMdv35vrNaEvIlC5F3NzNXuApMMi7Ydkg1x0keHwbRLhP97TtilX1ceQTR8FtQArdq6XZpoB6ZGRBCR8EeLgot4jAX44e3TP3eo78SxD3O_fz5kEUlMpERovsTGhJvjozfI1ssZQ3VAuFu-WMYVDZrxKyD-yJxH1-9-OmDHXWk6AzkkM_1raIklUaPQ1UaZb5p8iCFsinaLCAgHHu-OpPv1Ppy9RyASUpBWBdASDYbuYgC52N_GK0]--></g></svg>