<?xml version="1.0" encoding="us-ascii" standalone="no"?><svg xmlns="http://www.w3.org/2000/svg" xmlns:xlink="http://www.w3.org/1999/xlink" contentStyleType="text/css" height="741px" preserveAspectRatio="none" style="width:271px;height:741px;background:#FFFFFF;" version="1.1" viewBox="0 0 271 741" width="271px" zoomAndPan="magnify"><defs/><g><!--class User--><g id="elem_User"><rect codeLine="1" fill="#F1F1F1" height="113.1875" id="User" rx="2.5" ry="2.5" style="stroke:#181818;stroke-width:0.5;" width="97" x="78" y="132"/><ellipse cx="108.3" cy="148" fill="#ADD1B2" rx="11" ry="11" style="stroke:#181818;stroke-width:1.0;"/><path d="M110.6438,143.6719 C109.7063,143.2344 109.1125,143.0938 108.2375,143.0938 C105.6125,143.0938 103.6125,145.1719 103.6125,147.8906 L103.6125,149.0156 C103.6125,151.5938 105.7219,153.4844 108.6125,153.4844 C109.8313,153.4844 110.9875,153.1875 111.7375,152.6406 C112.3156,152.2344 112.6438,151.7813 112.6438,151.3906 C112.6438,150.9375 112.2531,150.5469 111.7844,150.5469 C111.5656,150.5469 111.3625,150.625 111.175,150.8125 C110.7219,151.2969 110.7219,151.2969 110.5344,151.3906 C110.1125,151.6563 109.425,151.7813 108.6594,151.7813 C106.6125,151.7813 105.3156,150.6875 105.3156,148.9844 L105.3156,147.8906 C105.3156,146.1094 106.5656,144.7969 108.3,144.7969 C108.8781,144.7969 109.4875,144.9531 109.9563,145.2031 C110.4406,145.4844 110.6125,145.7031 110.7063,146.1094 C110.7688,146.5156 110.8,146.6406 110.9406,146.7656 C111.0813,146.9063 111.3156,147.0156 111.5344,147.0156 C111.8,147.0156 112.0656,146.875 112.2375,146.6563 C112.3469,146.5 112.3781,146.3125 112.3781,145.8906 L112.3781,144.4688 C112.3781,144.0313 112.3625,143.9063 112.2688,143.75 C112.1125,143.4844 111.8313,143.3438 111.5344,143.3438 C111.2375,143.3438 111.0344,143.4375 110.8156,143.75 L110.6438,143.6719 Z " fill="#000000"/><text fill="#000000" font-family="sans-serif" font-size="14" lengthAdjust="spacing" textLength="31" x="125.7" y="152.8467">User</text><line style="stroke:#181818;stroke-width:0.5;" x1="79" x2="174" y1="164" y2="164"/><ellipse cx="89" cy="177.6484" fill="none" rx="3" ry="3" style="stroke:#038048;stroke-width:1.0;"/><text fill="#000000" font-family="sans-serif" font-size="14" lengthAdjust="spacing" textLength="13" x="98" y="180.9951">Id</text><ellipse cx="89" cy="193.9453" fill="none" rx="3" ry="3" style="stroke:#038048;stroke-width:1.0;"/><text fill="#000000" font-family="sans-serif" font-size="14" lengthAdjust="spacing" textLength="71" x="98" y="197.292">Username</text><ellipse cx="89" cy="210.2422" fill="none" rx="3" ry="3" style="stroke:#038048;stroke-width:1.0;"/><text fill="#000000" font-family="sans-serif" font-size="14" lengthAdjust="spacing" textLength="66" x="98" y="213.5889">Password</text><ellipse cx="89" cy="226.5391" fill="none" rx="3" ry="3" style="stroke:#038048;stroke-width:1.0;"/><text fill="#000000" font-family="sans-serif" font-size="14" lengthAdjust="spacing" textLength="32" x="98" y="229.8857">Role</text><line style="stroke:#181818;stroke-width:0.5;" x1="79" x2="174" y1="237.1875" y2="237.1875"/></g><!--class Book--><g id="elem_Book"><rect codeLine="8" fill="#F1F1F1" height="113.1875" id="Book" rx="2.5" ry="2.5" style="stroke:#181818;stroke-width:0.5;" width="75" x="26" y="596.5"/><ellipse cx="43.7" cy="612.5" fill="#ADD1B2" rx="11" ry="11" style="stroke:#181818;stroke-width:1.0;"/><path d="M46.0438,608.1719 C45.1063,607.7344 44.5125,607.5938 43.6375,607.5938 C41.0125,607.5938 39.0125,609.6719 39.0125,612.3906 L39.0125,613.5156 C39.0125,616.0938 41.1219,617.9844 44.0125,617.9844 C45.2313,617.9844 46.3875,617.6875 47.1375,617.1406 C47.7156,616.7344 48.0438,616.2813 48.0438,615.8906 C48.0438,615.4375 47.6531,615.0469 47.1844,615.0469 C46.9656,615.0469 46.7625,615.125 46.575,615.3125 C46.1219,615.7969 46.1219,615.7969 45.9344,615.8906 C45.5125,616.1563 44.825,616.2813 44.0594,616.2813 C42.0125,616.2813 40.7156,615.1875 40.7156,613.4844 L40.7156,612.3906 C40.7156,610.6094 41.9656,609.2969 43.7,609.2969 C44.2781,609.2969 44.8875,609.4531 45.3563,609.7031 C45.8406,609.9844 46.0125,610.2031 46.1063,610.6094 C46.1688,611.0156 46.2,611.1406 46.3406,611.2656 C46.4813,611.4063 46.7156,611.5156 46.9344,611.5156 C47.2,611.5156 47.4656,611.375 47.6375,611.1563 C47.7469,611 47.7781,610.8125 47.7781,610.3906 L47.7781,608.9688 C47.7781,608.5313 47.7625,608.4063 47.6688,608.25 C47.5125,607.9844 47.2313,607.8438 46.9344,607.8438 C46.6375,607.8438 46.4344,607.9375 46.2156,608.25 L46.0438,608.1719 Z " fill="#000000"/><text fill="#000000" font-family="sans-serif" font-size="14" lengthAdjust="spacing" textLength="37" x="58.3" y="617.3467">Book</text><line style="stroke:#181818;stroke-width:0.5;" x1="27" x2="100" y1="628.5" y2="628.5"/><ellipse cx="37" cy="642.1484" fill="none" rx="3" ry="3" style="stroke:#038048;stroke-width:1.0;"/><text fill="#000000" font-family="sans-serif" font-size="14" lengthAdjust="spacing" textLength="13" x="46" y="645.4951">Id</text><ellipse cx="37" cy="658.4453" fill="none" rx="3" ry="3" style="stroke:#038048;stroke-width:1.0;"/><text fill="#000000" font-family="sans-serif" font-size="14" lengthAdjust="spacing" textLength="33" x="46" y="661.792">Title</text><ellipse cx="37" cy="674.7422" fill="none" rx="3" ry="3" style="stroke:#038048;stroke-width:1.0;"/><text fill="#000000" font-family="sans-serif" font-size="14" lengthAdjust="spacing" textLength="49" x="46" y="678.0889">Author</text><ellipse cx="37" cy="691.0391" fill="none" rx="3" ry="3" style="stroke:#038048;stroke-width:1.0;"/><text fill="#000000" font-family="sans-serif" font-size="14" lengthAdjust="spacing" textLength="32" x="46" y="694.3857">Year</text><line style="stroke:#181818;stroke-width:0.5;" x1="27" x2="100" y1="701.6875" y2="701.6875"/></g><!--class Movie--><g id="elem_Movie"><rect codeLine="15" fill="#F1F1F1" height="162.0781" id="Movie" rx="2.5" ry="2.5" style="stroke:#181818;stroke-width:0.5;" width="94" x="162.5" y="572"/><ellipse cx="186.5" cy="588" fill="#ADD1B2" rx="11" ry="11" style="stroke:#181818;stroke-width:1.0;"/><path d="M188.8438,583.6719 C187.9063,583.2344 187.3125,583.0938 186.4375,583.0938 C183.8125,583.0938 181.8125,585.1719 181.8125,587.8906 L181.8125,589.0156 C181.8125,591.5938 183.9219,593.4844 186.8125,593.4844 C188.0313,593.4844 189.1875,593.1875 189.9375,592.6406 C190.5156,592.2344 190.8438,591.7813 190.8438,591.3906 C190.8438,590.9375 190.4531,590.5469 189.9844,590.5469 C189.7656,590.5469 189.5625,590.625 189.375,590.8125 C188.9219,591.2969 188.9219,591.2969 188.7344,591.3906 C188.3125,591.6563 187.625,591.7813 186.8594,591.7813 C184.8125,591.7813 183.5156,590.6875 183.5156,588.9844 L183.5156,587.8906 C183.5156,586.1094 184.7656,584.7969 186.5,584.7969 C187.0781,584.7969 187.6875,584.9531 188.1563,585.2031 C188.6406,585.4844 188.8125,585.7031 188.9063,586.1094 C188.9688,586.5156 189,586.6406 189.1406,586.7656 C189.2813,586.9063 189.5156,587.0156 189.7344,587.0156 C190,587.0156 190.2656,586.875 190.4375,586.6563 C190.5469,586.5 190.5781,586.3125 190.5781,585.8906 L190.5781,584.4688 C190.5781,584.0313 190.5625,583.9063 190.4688,583.75 C190.3125,583.4844 190.0313,583.3438 189.7344,583.3438 C189.4375,583.3438 189.2344,583.4375 189.0156,583.75 L188.8438,583.6719 Z " fill="#000000"/><text fill="#000000" font-family="sans-serif" font-size="14" lengthAdjust="spacing" textLength="42" x="202.5" y="592.8467">Movie</text><line style="stroke:#181818;stroke-width:0.5;" x1="163.5" x2="255.5" y1="604" y2="604"/><ellipse cx="173.5" cy="617.6484" fill="none" rx="3" ry="3" style="stroke:#038048;stroke-width:1.0;"/><text fill="#000000" font-family="sans-serif" font-size="14" lengthAdjust="spacing" textLength="13" x="182.5" y="620.9951">Id</text><ellipse cx="173.5" cy="633.9453" fill="none" rx="3" ry="3" style="stroke:#038048;stroke-width:1.0;"/><text fill="#000000" font-family="sans-serif" font-size="14" lengthAdjust="spacing" textLength="33" x="182.5" y="637.292">Title</text><ellipse cx="173.5" cy="650.2422" fill="none" rx="3" ry="3" style="stroke:#038048;stroke-width:1.0;"/><text fill="#000000" font-family="sans-serif" font-size="14" lengthAdjust="spacing" textLength="32" x="182.5" y="653.5889">Year</text><ellipse cx="173.5" cy="666.5391" fill="none" rx="3" ry="3" style="stroke:#038048;stroke-width:1.0;"/><text fill="#000000" font-family="sans-serif" font-size="14" lengthAdjust="spacing" textLength="60" x="182.5" y="669.8857">Director</text><ellipse cx="173.5" cy="682.8359" fill="none" rx="3" ry="3" style="stroke:#038048;stroke-width:1.0;"/><text fill="#000000" font-family="sans-serif" font-size="14" lengthAdjust="spacing" textLength="44" x="182.5" y="686.1826">Genre</text><ellipse cx="173.5" cy="699.1328" fill="none" rx="3" ry="3" style="stroke:#038048;stroke-width:1.0;"/><text fill="#000000" font-family="sans-serif" font-size="14" lengthAdjust="spacing" textLength="68" x="182.5" y="702.4795">Language</text><ellipse cx="173.5" cy="715.4297" fill="none" rx="3" ry="3" style="stroke:#038048;stroke-width:1.0;"/><text fill="#000000" font-family="sans-serif" font-size="14" lengthAdjust="spacing" textLength="63" x="182.5" y="718.7764">Synopsis</text><line style="stroke:#181818;stroke-width:0.5;" x1="163.5" x2="255.5" y1="726.0781" y2="726.0781"/></g><!--class BooksForm--><g id="elem_BooksForm"><rect codeLine="28" fill="#F1F1F1" height="48" id="BooksForm" rx="2.5" ry="2.5" style="stroke:#181818;stroke-width:0.5;" width="113" x="7" y="447"/><ellipse cx="22" cy="463" fill="#ADD1B2" rx="11" ry="11" style="stroke:#181818;stroke-width:1.0;"/><path d="M24.3438,458.6719 C23.4063,458.2344 22.8125,458.0938 21.9375,458.0938 C19.3125,458.0938 17.3125,460.1719 17.3125,462.8906 L17.3125,464.0156 C17.3125,466.5938 19.4219,468.4844 22.3125,468.4844 C23.5313,468.4844 24.6875,468.1875 25.4375,467.6406 C26.0156,467.2344 26.3438,466.7813 26.3438,466.3906 C26.3438,465.9375 25.9531,465.5469 25.4844,465.5469 C25.2656,465.5469 25.0625,465.625 24.875,465.8125 C24.4219,466.2969 24.4219,466.2969 24.2344,466.3906 C23.8125,466.6563 23.125,466.7813 22.3594,466.7813 C20.3125,466.7813 19.0156,465.6875 19.0156,463.9844 L19.0156,462.8906 C19.0156,461.1094 20.2656,459.7969 22,459.7969 C22.5781,459.7969 23.1875,459.9531 23.6563,460.2031 C24.1406,460.4844 24.3125,460.7031 24.4063,461.1094 C24.4688,461.5156 24.5,461.6406 24.6406,461.7656 C24.7813,461.9063 25.0156,462.0156 25.2344,462.0156 C25.5,462.0156 25.7656,461.875 25.9375,461.6563 C26.0469,461.5 26.0781,461.3125 26.0781,460.8906 L26.0781,459.4688 C26.0781,459.0313 26.0625,458.9063 25.9688,458.75 C25.8125,458.4844 25.5313,458.3438 25.2344,458.3438 C24.9375,458.3438 24.7344,458.4375 24.5156,458.75 L24.3438,458.6719 Z " fill="#000000"/><text fill="#000000" font-family="sans-serif" font-size="14" lengthAdjust="spacing" textLength="81" x="36" y="467.8467">BooksForm</text><line style="stroke:#181818;stroke-width:0.5;" x1="8" x2="119" y1="479" y2="479"/><line style="stroke:#181818;stroke-width:0.5;" x1="8" x2="119" y1="487" y2="487"/></g><!--class CRUDForm--><g id="elem_CRUDForm"><rect codeLine="31" fill="#F1F1F1" height="48" id="CRUDForm" rx="2.5" ry="2.5" style="stroke:#181818;stroke-width:0.5;" width="109" x="155" y="447"/><ellipse cx="170" cy="463" fill="#ADD1B2" rx="11" ry="11" style="stroke:#181818;stroke-width:1.0;"/><path d="M172.3438,458.6719 C171.4063,458.2344 170.8125,458.0938 169.9375,458.0938 C167.3125,458.0938 165.3125,460.1719 165.3125,462.8906 L165.3125,464.0156 C165.3125,466.5938 167.4219,468.4844 170.3125,468.4844 C171.5313,468.4844 172.6875,468.1875 173.4375,467.6406 C174.0156,467.2344 174.3438,466.7813 174.3438,466.3906 C174.3438,465.9375 173.9531,465.5469 173.4844,465.5469 C173.2656,465.5469 173.0625,465.625 172.875,465.8125 C172.4219,466.2969 172.4219,466.2969 172.2344,466.3906 C171.8125,466.6563 171.125,466.7813 170.3594,466.7813 C168.3125,466.7813 167.0156,465.6875 167.0156,463.9844 L167.0156,462.8906 C167.0156,461.1094 168.2656,459.7969 170,459.7969 C170.5781,459.7969 171.1875,459.9531 171.6563,460.2031 C172.1406,460.4844 172.3125,460.7031 172.4063,461.1094 C172.4688,461.5156 172.5,461.6406 172.6406,461.7656 C172.7813,461.9063 173.0156,462.0156 173.2344,462.0156 C173.5,462.0156 173.7656,461.875 173.9375,461.6563 C174.0469,461.5 174.0781,461.3125 174.0781,460.8906 L174.0781,459.4688 C174.0781,459.0313 174.0625,458.9063 173.9688,458.75 C173.8125,458.4844 173.5313,458.3438 173.2344,458.3438 C172.9375,458.3438 172.7344,458.4375 172.5156,458.75 L172.3438,458.6719 Z " fill="#000000"/><text fill="#000000" font-family="sans-serif" font-size="14" lengthAdjust="spacing" textLength="77" x="184" y="467.8467">CRUDForm</text><line style="stroke:#181818;stroke-width:0.5;" x1="156" x2="263" y1="479" y2="479"/><line style="stroke:#181818;stroke-width:0.5;" x1="156" x2="263" y1="487" y2="487"/></g><!--class LoginForm--><g id="elem_LoginForm"><rect codeLine="34" fill="#F1F1F1" height="48" id="LoginForm" rx="2.5" ry="2.5" style="stroke:#181818;stroke-width:0.5;" width="108" x="72.5" y="7"/><ellipse cx="87.5" cy="23" fill="#ADD1B2" rx="11" ry="11" style="stroke:#181818;stroke-width:1.0;"/><path d="M89.8438,18.6719 C88.9063,18.2344 88.3125,18.0938 87.4375,18.0938 C84.8125,18.0938 82.8125,20.1719 82.8125,22.8906 L82.8125,24.0156 C82.8125,26.5938 84.9219,28.4844 87.8125,28.4844 C89.0313,28.4844 90.1875,28.1875 90.9375,27.6406 C91.5156,27.2344 91.8438,26.7813 91.8438,26.3906 C91.8438,25.9375 91.4531,25.5469 90.9844,25.5469 C90.7656,25.5469 90.5625,25.625 90.375,25.8125 C89.9219,26.2969 89.9219,26.2969 89.7344,26.3906 C89.3125,26.6563 88.625,26.7813 87.8594,26.7813 C85.8125,26.7813 84.5156,25.6875 84.5156,23.9844 L84.5156,22.8906 C84.5156,21.1094 85.7656,19.7969 87.5,19.7969 C88.0781,19.7969 88.6875,19.9531 89.1563,20.2031 C89.6406,20.4844 89.8125,20.7031 89.9063,21.1094 C89.9688,21.5156 90,21.6406 90.1406,21.7656 C90.2813,21.9063 90.5156,22.0156 90.7344,22.0156 C91,22.0156 91.2656,21.875 91.4375,21.6563 C91.5469,21.5 91.5781,21.3125 91.5781,20.8906 L91.5781,19.4688 C91.5781,19.0313 91.5625,18.9063 91.4688,18.75 C91.3125,18.4844 91.0313,18.3438 90.7344,18.3438 C90.4375,18.3438 90.2344,18.4375 90.0156,18.75 L89.8438,18.6719 Z " fill="#000000"/><text fill="#000000" font-family="sans-serif" font-size="14" lengthAdjust="spacing" textLength="76" x="101.5" y="27.8467">LoginForm</text><line style="stroke:#181818;stroke-width:0.5;" x1="73.5" x2="179.5" y1="39" y2="39"/><line style="stroke:#181818;stroke-width:0.5;" x1="73.5" x2="179.5" y1="47" y2="47"/></g><!--class MenuPrincipalForm--><g id="elem_MenuPrincipalForm"><rect codeLine="37" fill="#F1F1F1" height="48" id="MenuPrincipalForm" rx="2.5" ry="2.5" style="stroke:#181818;stroke-width:0.5;" width="169" x="42" y="322"/><ellipse cx="57" cy="338" fill="#ADD1B2" rx="11" ry="11" style="stroke:#181818;stroke-width:1.0;"/><path d="M59.3438,333.6719 C58.4063,333.2344 57.8125,333.0938 56.9375,333.0938 C54.3125,333.0938 52.3125,335.1719 52.3125,337.8906 L52.3125,339.0156 C52.3125,341.5938 54.4219,343.4844 57.3125,343.4844 C58.5313,343.4844 59.6875,343.1875 60.4375,342.6406 C61.0156,342.2344 61.3438,341.7813 61.3438,341.3906 C61.3438,340.9375 60.9531,340.5469 60.4844,340.5469 C60.2656,340.5469 60.0625,340.625 59.875,340.8125 C59.4219,341.2969 59.4219,341.2969 59.2344,341.3906 C58.8125,341.6563 58.125,341.7813 57.3594,341.7813 C55.3125,341.7813 54.0156,340.6875 54.0156,338.9844 L54.0156,337.8906 C54.0156,336.1094 55.2656,334.7969 57,334.7969 C57.5781,334.7969 58.1875,334.9531 58.6563,335.2031 C59.1406,335.4844 59.3125,335.7031 59.4063,336.1094 C59.4688,336.5156 59.5,336.6406 59.6406,336.7656 C59.7813,336.9063 60.0156,337.0156 60.2344,337.0156 C60.5,337.0156 60.7656,336.875 60.9375,336.6563 C61.0469,336.5 61.0781,336.3125 61.0781,335.8906 L61.0781,334.4688 C61.0781,334.0313 61.0625,333.9063 60.9688,333.75 C60.8125,333.4844 60.5313,333.3438 60.2344,333.3438 C59.9375,333.3438 59.7344,333.4375 59.5156,333.75 L59.3438,333.6719 Z " fill="#000000"/><text fill="#000000" font-family="sans-serif" font-size="14" lengthAdjust="spacing" textLength="137" x="71" y="342.8467">MenuPrincipalForm</text><line style="stroke:#181818;stroke-width:0.5;" x1="43" x2="210" y1="354" y2="354"/><line style="stroke:#181818;stroke-width:0.5;" x1="43" x2="210" y1="362" y2="362"/></g><!--link User to MenuPrincipalForm--><g id="link_User_MenuPrincipalForm"><path codeLine="40" d="M126.5,245.2 C126.5,271.518 126.5,301.511 126.5,321.687 " fill="none" id="User-MenuPrincipalForm" style="stroke:#181818;stroke-width:1.0;"/><text fill="#000000" font-family="sans-serif" font-size="13" lengthAdjust="spacing" textLength="61" x="127.5" y="288.0669">access to</text></g><!--link BooksForm to Book--><g id="link_BooksForm_Book"><path codeLine="41" d="M63.5,495.163 C63.5,520.61 63.5,562.389 63.5,596.429 " fill="none" id="BooksForm-Book" style="stroke:#181818;stroke-width:1.0;"/><text fill="#000000" font-family="sans-serif" font-size="13" lengthAdjust="spacing" textLength="31" x="64.5" y="538.0669">Uses</text></g><!--link CRUDForm to Movie--><g id="link_CRUDForm_Movie"><path codeLine="42" d="M209.5,495.163 C209.5,514.723 209.5,543.932 209.5,571.86 " fill="none" id="CRUDForm-Movie" style="stroke:#181818;stroke-width:1.0;"/><text fill="#000000" font-family="sans-serif" font-size="13" lengthAdjust="spacing" textLength="31" x="210.5" y="538.0669">Uses</text></g><!--link LoginForm to User--><g id="link_LoginForm_User"><path codeLine="43" d="M126.5,55.28 C126.5,75.445 126.5,105.432 126.5,131.754 " fill="none" id="LoginForm-User" style="stroke:#181818;stroke-width:1.0;"/><text fill="#000000" font-family="sans-serif" font-size="13" lengthAdjust="spacing" textLength="31" x="127.5" y="98.0669">Uses</text></g><!--link MenuPrincipalForm to BooksForm--><g id="link_MenuPrincipalForm_BooksForm"><path codeLine="44" d="M109.173,370.027 C102.8142,379.083 95.8665,389.752 90.5,400 C82.6447,415.001 75.8048,432.818 70.9748,446.722 " fill="none" id="MenuPrincipalForm-BooksForm" style="stroke:#181818;stroke-width:1.0;"/><text fill="#000000" font-family="sans-serif" font-size="13" lengthAdjust="spacing" textLength="64" x="91.5" y="413.0669">Navigates</text></g><!--link MenuPrincipalForm to CRUDForm--><g id="link_MenuPrincipalForm_CRUDForm"><path codeLine="45" d="M142.112,370.135 C156.951,392.126 179.142,425.012 193.958,446.968 " fill="none" id="MenuPrincipalForm-CRUDForm" style="stroke:#181818;stroke-width:1.0;"/><text fill="#000000" font-family="sans-serif" font-size="13" lengthAdjust="spacing" textLength="64" x="174.5" y="413.0669">Navigates</text></g><!--SRC=[VL1B2i8m4Dtd5DcB5-ZE3uhGIb6xS3d4eGPhfYIf8kBTJTFqGujcbPdt6vuem1YU6TJypRXxCxwxX4-zLN37CAQE-IJTeWSga7qO4zvXINIREfoaBLhveh9Nqc4u8-XUdD13ud-r5pJVjTGeR6UrHQLRLWmgho1ln-DBKMcagPFOy5Ap8NrtWTq5gqEs7kzYogKQBnDKLQgb4hA4eWTzWVFv58uu285EQ8droOxf2ulgZWthqci7tqK0-XCSuZC2C3qZM3R-4T_3G-PWVr6xn07p2m00]--></g></svg>